<svg id="Layer_1" data-name="Layer 1" xmlns="http://www.w3.org/2000/svg" viewBox="0 0 137 30"><defs><style>.cls-1{fill:#006e94;}.cls-2{isolation:isolate;}.cls-3{fill:#fff;}</style></defs><rect id="Retângulo_2" data-name="Retângulo 2" class="cls-1" width="137" height="30"/><g id="VER_MAIS" data-name="VER MAIS" class="cls-2"><g class="cls-2"><path class="cls-3" d="M44.5,21,42.05,9H44l1.6,9.58L47.19,9h1.92L46.66,21Z"/><path class="cls-3" d="M50.19,21V9h4.92v1.66h-3v3.4H55v1.66H52.06v3.64h3V21Z"/><path class="cls-3" d="M61,21l-1.42-4.59h-.86V21H56.8V9h3c1.79,0,3.08,1.46,3.08,3.66s-.9,3-1.6,3.31L63,21ZM59.52,10.65h-.85v4.11h.85c.93,0,1.42-.85,1.42-2.06S60.45,10.65,59.52,10.65Z"/><path class="cls-3" d="M74.44,21V12.63L72.31,21h-.66l-2.09-8.37V21H67.69V9h2.43L72,16.43,73.9,9h2.39V21Z"/><path class="cls-3" d="M82.57,21l-.41-2.44H79.6L79.19,21H77.35L79.8,9H82l2.45,12ZM80.88,10.78,79.82,16.9h2.12Z"/><path class="cls-3" d="M85.49,21V9h1.87V21Z"/><path class="cls-3" d="M89.52,18.59a2.49,2.49,0,0,0,1.91,1A1.41,1.41,0,0,0,92.78,18c0-1.08-.76-1.68-1.6-2.34C90.15,14.85,89,14,89,12A3,3,0,0,1,92.09,8.8a3.44,3.44,0,0,1,2.42.92l-.76,1.44a2.14,2.14,0,0,0-1.6-.69,1.28,1.28,0,0,0-1.24,1.42c0,.9.7,1.48,1.51,2.13a4.67,4.67,0,0,1,2.27,3.87,3.09,3.09,0,0,1-3.15,3.33,3.76,3.76,0,0,1-2.87-1.15Z"/></g></g></svg>