<svg id="Layer_1" data-name="Layer 1" xmlns="http://www.w3.org/2000/svg" xmlns:xlink="http://www.w3.org/1999/xlink" viewBox="0 0 30 30"><defs><style>.cls-1{fill:none;}.cls-2{clip-path:url(#clip-path);}.cls-3{fill:#3e3e3e;}</style><clipPath id="clip-path"><rect class="cls-1" y="0.58" width="30" height="28.84"/></clipPath></defs><g id="Grupo_21" data-name="Grupo 21"><g class="cls-2"><g id="Grupo_20" data-name="Grupo 20"><path id="Caminho_20" data-name="Caminho 20" class="cls-3" d="M21.6,29.42a14.08,14.08,0,0,1-6-1.55A30.22,30.22,0,0,1,1.68,14.15,13.5,13.5,0,0,1,0,7.14,5.56,5.56,0,0,1,3.51,2a3,3,0,0,1,3.61,1q1.55,2.1,3,4.29a3,3,0,0,1-.74,4.09c-.39.29-.79.58-1.2.84-.22.14-.21.24-.07.44A36.69,36.69,0,0,0,12.81,18a34.76,34.76,0,0,0,4,3.33c.19.14.28.14.42-.07.25-.4.53-.79.82-1.17a3.05,3.05,0,0,1,4.21-.73c1.4.95,2.79,1.91,4.16,2.91a3,3,0,0,1,1,3.66,5.51,5.51,0,0,1-4.85,3.45c-.27,0-.55,0-.82.05H21.6"/><path id="Caminho_21" data-name="Caminho 21" class="cls-3" d="M29.12.58H14.69c-.59,0-.84.21-.84.72V9.8c0,.49.23.71.72.72h1.78a.42.42,0,0,1,.47.28c.38.88.81,1.73,1.21,2.6.14.31.28.63.69.64s.57-.34.72-.66c.39-.85.81-1.7,1.19-2.56a.44.44,0,0,1,.49-.31h8c.68,0,.85-.18.85-.85V1.45c0-.69-.18-.87-.87-.87M17.48,3.72a1.75,1.75,0,0,1,.46,0h8.21c.44,0,.73.28.71.65s-.28.58-.72.59H17.73a.64.64,0,0,1-.7-.47.59.59,0,0,1,.39-.73h.06m8.71,3.69H17.74c-.42,0-.66-.18-.72-.5a.6.6,0,0,1,.46-.71h0a1.3,1.3,0,0,1,.34,0h8.38a.64.64,0,0,1,.64.64.62.62,0,0,1-.64.6h0"/></g></g></g></svg>