<svg id="Layer_1" data-name="Layer 1" xmlns="http://www.w3.org/2000/svg" viewBox="0 0 30 30"><defs><style>.cls-1{fill:#3e3e3e;}</style></defs><g id="icon-instagram-2"><path id="Caminho_8" data-name="Caminho 8" class="cls-1" d="M19.47,7.94H10.53a2.6,2.6,0,0,0-2.59,2.59v8.94a2.6,2.6,0,0,0,2.59,2.59h8.94a2.6,2.6,0,0,0,2.59-2.59V10.53A2.6,2.6,0,0,0,19.47,7.94ZM15,19.65A4.65,4.65,0,1,1,19.65,15,4.65,4.65,0,0,1,15,19.65Zm4.8-8.34a1.1,1.1,0,1,1,1.09-1.1h0A1.09,1.09,0,0,1,19.8,11.31Z"/><path id="Caminho_9" data-name="Caminho 9" class="cls-1" d="M15,12.32A2.69,2.69,0,1,0,17.68,15,2.69,2.69,0,0,0,15,12.32Z"/><path id="Caminho_10" data-name="Caminho 10" class="cls-1" d="M15,0A15,15,0,1,0,30,15h0A15,15,0,0,0,15,0Zm9,19.51A4.55,4.55,0,0,1,19.47,24H10.53A4.55,4.55,0,0,1,6,19.47V10.53A4.55,4.55,0,0,1,10.53,6h8.94A4.55,4.55,0,0,1,24,10.53Z"/></g></svg>