<svg id="Layer_1" data-name="Layer 1" xmlns="http://www.w3.org/2000/svg" viewBox="0 0 147.95 72"><defs><style>.cls-1{fill:#646569;}.cls-2{fill:#f5831f;}</style></defs><path class="cls-1" d="M30.53,52c0-.75-.57-1.22-1.45-1.22a3,3,0,0,0-1.72.54v-1a3.47,3.47,0,0,1,1.88-.51,2,2,0,0,1,2.28,2.08V56h-1v-.45a2.46,2.46,0,0,1-1.58.56,2,2,0,0,1-2.25-1.94A2.07,2.07,0,0,1,29,52.29a2.58,2.58,0,0,1,1.52.49Zm0,1.9a1.48,1.48,0,0,0-1.41-.75c-.74,0-1.45.33-1.45,1s.71,1.08,1.45,1.08a1.48,1.48,0,0,0,1.41-.75Zm12.88-6.26V56H42.33V52.2H37.59V56H36.51V47.63h1.08v3.6h4.74v-3.6Zm2.51,5.54a1.93,1.93,0,0,0,2,2.07,2.61,2.61,0,0,0,1.72-.57v.94a2.92,2.92,0,0,1-1.84.53A2.82,2.82,0,0,1,44.91,53c0-1.88,1.09-3.21,2.7-3.21s2.49,1.19,2.49,3v.37Zm0-.81H49.1c0-.89-.49-1.65-1.48-1.65C46.82,50.71,46.16,51.24,46,52.36Zm10.48,2.23L57.79,50h1L57,56H56l-1.25-4.6L53.48,56h-1L50.69,50h1l1.34,4.63L54.3,50h.91ZM60.91,56h-1V47.14h1Zm2.37-2.85a1.94,1.94,0,0,0,2,2.07A2.63,2.63,0,0,0,67,54.67v.94a2.92,2.92,0,0,1-1.84.53A2.83,2.83,0,0,1,62.27,53c0-1.88,1.1-3.21,2.71-3.21s2.48,1.19,2.48,3v.37Zm.06-.81h3.13c0-.89-.5-1.65-1.48-1.65C64.18,50.71,63.53,51.24,63.34,52.36ZM70.46,56h-1V50.83H68.17V50h1.27v-1.6h1V50h1.41v.87H70.46ZM75,56H74V50.83H72.7V50H74v-1.6h1V50h1.4v.87H75Zm7-3.36V56H80.88V47.63H84c1.69,0,2.8.86,2.8,2.51s-1.11,2.52-2.8,2.52Zm2-4.09H82V51.7h2c1.13,0,1.75-.61,1.75-1.56A1.53,1.53,0,0,0,84,48.57ZM91.25,52c0-.75-.56-1.22-1.45-1.22a3.05,3.05,0,0,0-1.72.54v-1A3.5,3.5,0,0,1,90,49.83a2,2,0,0,1,2.28,2.08V56h-1v-.45a2.4,2.4,0,0,1-1.57.56,2,2,0,0,1-2.26-1.94,2.07,2.07,0,0,1,2.31-1.9,2.58,2.58,0,0,1,1.52.49Zm0,1.9a1.46,1.46,0,0,0-1.41-.75c-.73,0-1.44.33-1.44,1s.71,1.08,1.44,1.08a1.46,1.46,0,0,0,1.41-.75Zm5.21-4.06a2.45,2.45,0,0,1,1.62.51v1a2.08,2.08,0,0,0-1.55-.63,2.26,2.26,0,0,0,0,4.48,2.08,2.08,0,0,0,1.55-.63v1a2.45,2.45,0,0,1-1.62.5,3.16,3.16,0,0,1,0-6.31ZM104.57,56h-1.28l-2.8-3v3h-1V47.14h1v5.37l2.7-2.55h1.32l-3,2.77Zm4.21-4c0-.75-.56-1.22-1.44-1.22a3,3,0,0,0-1.72.54v-1a3.44,3.44,0,0,1,1.88-.51,2,2,0,0,1,2.28,2.08V56h-1v-.45a2.4,2.4,0,0,1-1.57.56A2,2,0,0,1,105,54.19a2.07,2.07,0,0,1,2.31-1.9,2.52,2.52,0,0,1,1.51.49Zm0,1.9a1.45,1.45,0,0,0-1.4-.75c-.74,0-1.45.33-1.45,1s.71,1.08,1.45,1.08a1.45,1.45,0,0,0,1.4-.75ZM114.57,51a1.27,1.27,0,0,0-.68-.17A1.48,1.48,0,0,0,112.48,52V56h-1V50h1v.79a1.71,1.71,0,0,1,1.51-.92,1.37,1.37,0,0,1,.58.1Zm5.14,4.33a2.13,2.13,0,0,1-1.71.83c-1.77,0-2.73-1.43-2.73-3.15s1-3.16,2.73-3.16a2.16,2.16,0,0,1,1.71.83V47.14h1V56h-1Zm0-3.55a1.76,1.76,0,0,0-1.56-1c-1.16,0-1.84.94-1.84,2.23s.68,2.23,1.84,2.23a1.76,1.76,0,0,0,1.56-1Zm-91.2,9.53v1H24.23V64.9h3.88v.95H24.23v2.86h4.28v1H23.16V61.29Zm1.36,2.32h1v.77a2.27,2.27,0,0,1,1.79-.89,2,2,0,0,1,2.13,2.21v4h-1V65.87a1.26,1.26,0,0,0-1.33-1.44,1.66,1.66,0,0,0-1.55,1.14v4.11h-1Zm8.21,6.07h-1V64.49H35.79v-.88h1.27V62h1v1.6h1.41v.88H38.08Zm3.06-2.86a1.94,1.94,0,0,0,2,2.08,2.61,2.61,0,0,0,1.72-.57v.94a2.92,2.92,0,0,1-1.84.53,2.83,2.83,0,0,1-2.93-3.1c0-1.89,1.1-3.21,2.71-3.21s2.49,1.19,2.49,3v.36Zm0-.8h3.13c0-.89-.49-1.66-1.48-1.66C42,64.36,41.38,64.9,41.19,66Zm8.59-1.38a1.27,1.27,0,0,0-.68-.17,1.48,1.48,0,0,0-1.41,1.14v4.07h-1V63.61h1v.8a1.69,1.69,0,0,1,1.5-.92,1.39,1.39,0,0,1,.59.1ZM52,72h-1V63.61h1v.71a2.16,2.16,0,0,1,1.7-.83c1.79,0,2.74,1.48,2.74,3.16s-1,3.15-2.74,3.15A2.16,2.16,0,0,1,52,69Zm0-4.12a1.74,1.74,0,0,0,1.55,1c1.16,0,1.85-.94,1.85-2.22s-.69-2.23-1.85-2.23a1.73,1.73,0,0,0-1.55,1Zm8.91-3.24a1.33,1.33,0,0,0-.69-.17,1.46,1.46,0,0,0-1.4,1.14v4.07h-1V63.61h1v.8a1.69,1.69,0,0,1,1.5-.92,1.39,1.39,0,0,1,.59.1Zm1.64-2.2a.66.66,0,0,1-.65-.66.66.66,0,0,1,1.32,0A.67.67,0,0,1,62.5,62.44ZM63,69.68H62V63.61h1Zm1.44-1.57a2.94,2.94,0,0,0,2,.82c.66,0,1.25-.25,1.25-.85,0-.45-.34-.7-.87-.87L66,66.92c-.91-.3-1.53-.74-1.53-1.72s1-1.71,2.15-1.71a3.16,3.16,0,0,1,1.8.53v1.07a2.66,2.66,0,0,0-1.8-.73c-.63,0-1.15.28-1.15.8s.33.65.9.86l.93.31A1.76,1.76,0,0,1,68.72,68c0,1.12-1,1.76-2.26,1.76a3.33,3.33,0,0,1-2-.6Zm6.25-1.29a1.94,1.94,0,0,0,2,2.08,2.63,2.63,0,0,0,1.72-.57v.94a2.94,2.94,0,0,1-1.85.53,2.83,2.83,0,0,1-2.92-3.1c0-1.89,1.09-3.21,2.71-3.21s2.48,1.19,2.48,3v.36Zm.06-.8H73.9c-.05-.89-.5-1.66-1.48-1.66C71.61,64.36,71,64.9,70.77,66Zm11.16-2.53a2.47,2.47,0,0,1,1.62.51v1A2.13,2.13,0,0,0,82,64.41a2.26,2.26,0,0,0,0,4.48,2.1,2.1,0,0,0,1.55-.63v1a2.52,2.52,0,0,1-1.62.5,3.16,3.16,0,0,1,0-6.31Zm5.28,6.31a2.84,2.84,0,0,1-2.78-3.15c0-1.86,1.12-3.16,2.78-3.16a3.18,3.18,0,0,1,0,6.31Zm0-5.41c-1.09,0-1.75.93-1.75,2.26s.66,2.25,1.75,2.25S89,68,89,66.65,88.31,64.39,87.21,64.39Zm10.29-.9c1.23,0,1.92.86,1.92,2.17v4h-1V65.83c0-.85-.37-1.41-1.15-1.41a1.41,1.41,0,0,0-1.34,1.08v4.18h-1V65.83c0-.85-.37-1.41-1.15-1.41a1.41,1.41,0,0,0-1.34,1.08v4.18h-1V63.61h1v.71A1.92,1.92,0,0,1,94,63.49a1.78,1.78,0,0,1,1.64,1A2.18,2.18,0,0,1,97.5,63.49ZM102.12,72h-1V63.61h1v.71a2.19,2.19,0,0,1,1.71-.83c1.79,0,2.73,1.48,2.73,3.16s-.94,3.15-2.73,3.15a2.19,2.19,0,0,1-1.71-.83Zm0-4.12a1.77,1.77,0,0,0,1.56,1c1.16,0,1.84-.94,1.84-2.22s-.68-2.23-1.84-2.23a1.76,1.76,0,0,0-1.56,1Zm9.22-2.23c0-.75-.56-1.22-1.45-1.22a3,3,0,0,0-1.72.54V64a3.47,3.47,0,0,1,1.88-.51,2,2,0,0,1,2.28,2.08v4.11h-1v-.45a2.4,2.4,0,0,1-1.57.56,2,2,0,0,1-2.26-1.94,2.07,2.07,0,0,1,2.31-1.9,2.58,2.58,0,0,1,1.52.49Zm0,1.9a1.48,1.48,0,0,0-1.41-.75c-.74,0-1.45.32-1.45,1s.71,1.08,1.45,1.08a1.48,1.48,0,0,0,1.41-.75ZM114,63.61h1v.77a2.25,2.25,0,0,1,1.78-.89A2,2,0,0,1,119,65.7v4h-1V65.87a1.27,1.27,0,0,0-1.34-1.44A1.63,1.63,0,0,0,115,65.57v4.11h-1ZM121.19,72l.92-2.28-2.36-6.11h1.1l1.79,4.78,1.77-4.78h1.06L122.21,72Z"/><path class="cls-2" d="M84,22.82h0a14.21,14.21,0,1,1-28.41,0h0V10.49s6.75,1.68,6.83,8.9v3.35a7.4,7.4,0,1,0,14.76,0v-7c.28-6,5.37-7.94,6.68-8.56H84V22.82ZM47.41,8.43a15.09,15.09,0,0,1,5.32,1V17a8.19,8.19,0,0,0-5.32-1.94A8,8,0,0,0,39.31,23V37.28H32.48V11.12a10.5,10.5,0,0,1,4.61,1.36A15.08,15.08,0,0,1,47.41,8.43M14.83,30.83a8.11,8.11,0,0,1-8.22-8,8.11,8.11,0,0,1,8.22-8,8.11,8.11,0,0,1,8.22,8,8.11,8.11,0,0,1-8.22,8m0-22.4A14.63,14.63,0,0,0,0,22.85,14.63,14.63,0,0,0,14.83,37.27a15,15,0,0,0,9-3c1.54,2.5,5.84,3,5.84,3V22.85A14.63,14.63,0,0,0,14.83,8.43m118.29,22.4a8.11,8.11,0,0,1-8.22-8,8.22,8.22,0,0,1,16.44,0,8.11,8.11,0,0,1-8.22,8m0-22.4a14.63,14.63,0,0,0-14.84,14.42,14.63,14.63,0,0,0,14.84,14.42,15,15,0,0,0,9-3c1.53,2.5,5.83,3,5.83,3V22.85A14.63,14.63,0,0,0,133.12,8.43m-31.36,22.4a8.11,8.11,0,0,1-8.22-8,8.22,8.22,0,0,1,16.44,0,8.11,8.11,0,0,1-8.22,8m0-22.4a15.05,15.05,0,0,0-8.17,2.39V8.56c-.28-6-5.21-7.94-6.52-8.56h-.15V37.36s4.44-.46,6.1-2.88a15,15,0,0,0,8.74,2.79,14.63,14.63,0,0,0,14.83-14.42A14.63,14.63,0,0,0,101.76,8.43"/></svg>