<svg id="Layer_1" data-name="Layer 1" xmlns="http://www.w3.org/2000/svg" viewBox="0 0 158.17 45.86"><defs><style>.cls-1{fill:#fff;stroke:#575756;stroke-miterlimit:10;stroke-width:0.75px;}.cls-2{fill:#9d9d9c;}.cls-3{fill:#0080c6;}.cls-4{fill:#575756;}</style></defs><rect class="cls-1" x="0.38" y="0.38" width="157.42" height="45.11"/><path class="cls-2" d="M144.85,21.37c0-1.6-.89-2.31-2.68-2.67s-2.85-.53-2.85-1.78c0-.89.72-1.43,2-1.43,1.61,0,2.14.72,2.14,1.61l.18.18h.71l.18-.18c0-1.78-1.42-2.5-3.21-2.5-2,0-3,1.07-3,2.32,0,1.42,1.06,2.14,2.85,2.49s2.67.54,2.67,2c0,.89-.53,1.61-2.32,1.61-1.6,0-2.31-.89-2.31-2l-.18-.18h-.71l-.18.18c0,1.6,1.24,2.85,3.38,2.85,2.32,0,3.39-1.07,3.39-2.5m-7.66-1.78.17-.18v-.53c0-2.5-1.42-4.28-3.91-4.28s-3.92,1.78-3.92,4.28v.36c0,2.49,1.24,4.63,4.09,4.63a3.28,3.28,0,0,0,3.57-2.68L137,21h-.71l-.18.17a2.38,2.38,0,0,1-2.5,1.79,3.11,3.11,0,0,1-3-3.21l.18-.18Zm-1.07-.89h-5.35l-.18-.18a2.86,2.86,0,1,1,5.71,0Zm-7.84,4.81V15l-.18-.18h-.71l-.18.18v8.55l.18.18h.71Zm0-10.33V12.11l-.18-.18h-.71l-.18.18v1.07l.18.18h.71ZM121.51,23c-1.78,0-2.85-1.25-2.85-3.74s1.07-3.75,2.85-3.75,2.85,1.25,2.85,3.75S123.29,23,121.51,23m2.85-.54c0,2.32-.54,4.1-2.67,4.1-1.61,0-2.14-.71-2.32-1.6l-.18-.18h-.71l-.18.18c.18,1.42,1.25,2.49,3.39,2.49,2.31,0,3.74-1.42,3.74-5V15l-.18-.18h-.54l-.17.18L124.36,16h-.18a3,3,0,0,0-2.85-1.43c-2.5,0-3.74,2-3.74,4.64s1.24,4.63,3.74,4.63a3,3,0,0,0,2.85-1.43Zm-11.58-7c1.78,0,3,1.43,3,3.75s-1.25,3.74-3,3.74-3-1.43-3-3.74,1.25-3.75,3-3.75m0,8.38c2.31,0,4.1-1.61,4.1-4.63s-1.79-4.64-4.1-4.64-4.1,1.61-4.1,4.64,1.78,4.63,4.1,4.63m-5.35-.36V11.4l-.18-.18h-.71l-.18.18V23.51l.18.18h.71Zm-6.41-8c1.78,0,3,1.43,3,3.75S102.8,23,101,23s-3-1.43-3-3.74,1.25-3.75,3-3.75m0,8.38c2.31,0,4.1-1.61,4.1-4.63s-1.79-4.64-4.1-4.64-4.1,1.61-4.1,4.64,1.78,4.63,4.1,4.63m-5.17-.36V18.17c0-2.32-1.24-3.57-3.21-3.57A3.26,3.26,0,0,0,89.79,16h-.17L89.44,15l-.18-.18h-.54l-.17.18v8.55l.17.18h.72l.18-.18V18.7c0-2,.89-3.21,2.85-3.21,1.42,0,2.31.89,2.31,2.68v5.34l.18.18h.71Zm-9.09,0V18.17c0-2.32-1.24-3.57-3.2-3.57A3.23,3.23,0,0,0,80.71,16h-.18V11.4l-.18-.18h-.71l-.18.18V23.51l.18.18h.71l.18-.18V18.7c0-2,.89-3.21,2.85-3.21,1.43,0,2.32.89,2.32,2.68v5.34l.17.18h.72ZM71.44,19.24c0-2.5,1.25-3.75,3-3.75a2.44,2.44,0,0,1,2.67,2.14l.18.18H78l.18-.18a3.43,3.43,0,0,0-3.74-3c-2.32,0-4.1,1.43-4.1,4.64s1.78,4.63,4.1,4.63a3.43,3.43,0,0,0,3.74-3L78,20.66h-.71l-.18.18A2.44,2.44,0,0,1,74.47,23c-1.78,0-3-1.25-3-3.74m-2,.35.18-.18v-.53c0-2.5-1.43-4.28-3.92-4.28s-3.92,1.78-3.92,4.28v.36c0,2.49,1.25,4.63,4.1,4.63a3.28,3.28,0,0,0,3.56-2.68L69.3,21h-.71l-.18.17A2.37,2.37,0,0,1,65.92,23a3.1,3.1,0,0,1-3-3.21l.18-.18Zm-1.07-.89H63.07l-.18-.18a2.86,2.86,0,1,1,5.7,0Zm-4.8-6.77V11.4l-.18-.18H54.17L54,11.4v.53l.18.18h3.92l.18.18V23.51l.17.18h.72l.18-.18V12.29l.17-.18h3.92Z"/><path class="cls-3" d="M54,21.21v2.48H45.94V11.22h2.84v10Zm-37.2,2.48a6.24,6.24,0,0,0,6-4.67l7.05,5.52L36.93,19v4.66h8V21.21H39.77v-10H36.93v4.66l-6.76,5.29L28.66,20l3.24-2.53,3.52-2.75-2-1.57-6.77,5.28-1.51-1.18,6.77-5.29-2-1.57-7,5.51a6.25,6.25,0,0,0-6-4.66H11.73V23.69Zm-2.22-2.48V13.7h2.22a3.59,3.59,0,0,1,3.4,3.75,3.59,3.59,0,0,1-3.4,3.76Z"/><path class="cls-4" d="M52.84,36.74h-.69l-.07-.08-.38-1-.15-.07h-1.9l-.15.07-.38,1-.08.08h-.68l-.08-.08V35.9L50,31.5l.07-.07h1l.08.07,1.74,4.4v.76Zm-2.21-4h-.07l-.68,1.82.07.08h1.29l.08-.08Z"/><path class="cls-4" d="M58.53,34.69a2.13,2.13,0,0,1-4.25,0V31.5l.08-.07h.91l.07.07v3.19c0,.76.31,1.21,1.07,1.21s1.06-.45,1.06-1.21V31.5l.07-.07h.91l.08.07Z"/><path class="cls-4" d="M64.07,32.34H62.56l-.08.07v4.25l-.07.08h-.92l-.07-.08V32.41l-.08-.07H59.83l-.08-.08V31.5l.08-.07h4.24l.08.07v.76Z"/><path class="cls-4" d="M69.77,36.74h-.91l-.08-.08V34.54l-.07-.08h-2l-.08.08v2.12l-.07.08H65.6l-.08-.08V31.5l.08-.07h.91l.07.07v2l.08.08h2l.07-.08v-2l.08-.07h.91l.08.07v5.16Z"/><path class="cls-4" d="M74,36.81a2.51,2.51,0,0,1-2.58-2.73,2.58,2.58,0,1,1,5.16,0A2.51,2.51,0,0,1,74,36.81Zm0-4.55c-1,0-1.52.76-1.52,1.82S73,35.9,74,35.9s1.52-.76,1.52-1.82S74.93,32.26,74,32.26Z"/><path class="cls-4" d="M81.31,34.54v.07l1,1.29v.76l-.08.08h-.45l-.15-.08-1.52-2L80,34.61h-.76l-.08.08v2l-.07.08h-.91l-.08-.08V31.5l.08-.07h2.5c1.06,0,1.82.53,1.82,1.59A1.51,1.51,0,0,1,81.31,34.54Zm-.68-2.2H79.19l-.08.07v1.22l.08.07h1.44c.46,0,.76-.15.76-.68S81.09,32.34,80.63,32.34Z"/><path class="cls-4" d="M85,36.74h-.91L84,36.66V31.5l.08-.07H85l.08.07v5.16Z"/><path class="cls-4" d="M90.5,36.74H86.71l-.08-.08v-.83l.08-.16,2.43-3.26v-.07H86.78l-.07-.08V31.5l.07-.07h3.57l.08.07v.84l-.08.15-2.43,3.26v.08H90.5l.08.07v.76Z"/><path class="cls-4" d="M95.82,36.74H92.25l-.08-.08V31.5l.08-.07h3.57l.07.07v.76l-.07.08H93.31l-.07.07v1.06l.07.08h2.36l.07.08v.75l-.07.08H93.31l-.07.08v1.21l.07.08h2.51l.07.07v.76Z"/><path class="cls-4" d="M99.31,36.74H97.64l-.07-.08V31.5l.07-.07h1.67c1.9,0,2.58,1,2.58,2.65S101.21,36.74,99.31,36.74Zm.08-4.4h-.68l-.08.07v3.34l.08.08h.68c1.06,0,1.44-.53,1.44-1.75S100.45,32.34,99.39,32.34Z"/><path class="cls-4" d="M108.2,34.61h-1.45l-.07.08v2l-.08.08h-.91l-.07-.08V31.5l.07-.07h2.51c1.06,0,1.82.53,1.82,1.59S109.26,34.61,108.2,34.61Zm0-2.27h-1.45l-.07.07v1.22l.07.07h1.45c.45,0,.75-.15.75-.68S108.65,32.34,108.2,32.34Z"/><path class="cls-4" d="M115.26,36.74h-.69l-.07-.08-.38-1L114,35.6h-1.9l-.15.07-.38,1-.08.08h-.68l-.08-.08V35.9l1.75-4.4.07-.07h1l.08.07,1.74,4.4v.76Zm-2.2-4H113l-.68,1.82.07.08h1.29l.08-.08Z"/><path class="cls-4" d="M120.12,34.54v.07l1,1.29v.76l-.07.08h-.46l-.15-.08-1.52-2-.15-.08H118l-.07.08v2l-.08.08h-.91l-.08-.08V31.5l.08-.07h2.5c1.07,0,1.83.53,1.83,1.59A1.52,1.52,0,0,1,120.12,34.54Zm-.69-2.2H118l-.07.07v1.22l.07.07h1.44c.46,0,.76-.15.76-.68S119.89,32.34,119.43,32.34Z"/><path class="cls-4" d="M126.72,32.34h-1.51l-.08.07v4.25l-.08.08h-.91l-.07-.08V32.41l-.08-.07h-1.52l-.07-.08V31.5l.07-.07h4.25l.08.07v.76Z"/><path class="cls-4" d="M128.25,31.43h1.06l.15.07,2,3.49h.07V31.5l.08-.07h.91l.08.07v5.16l-.08.08h-1.06l-.15-.08-2.05-3.49h-.08v3.49l-.07.08h-.91l-.08-.08V31.5Z"/><path class="cls-4" d="M138.11,36.74h-3.56l-.08-.08V31.5l.08-.07h3.56l.08.07v.76l-.08.08h-2.5l-.08.07v1.06l.08.08H138l.08.08v.75l-.08.08h-2.35l-.08.08v1.21l.08.08h2.5l.08.07v.76Z"/><path class="cls-4" d="M143.13,34.54v.07l1,1.29v.76l-.07.08h-.46l-.15-.08-1.52-2-.15-.08H141l-.07.08v2l-.08.08h-.91l-.08-.08V31.5l.08-.07h2.5c1.07,0,1.83.53,1.83,1.59A1.52,1.52,0,0,1,143.13,34.54Zm-.69-2.2H141l-.07.07v1.22l.07.07h1.44c.46,0,.76-.15.76-.68S142.9,32.34,142.44,32.34Z"/></svg>