<svg id="Layer_1" data-name="Layer 1" xmlns="http://www.w3.org/2000/svg" viewBox="0 0 71.55 71.56"><defs><style>.cls-1{fill:#0096d6;}</style></defs><path class="cls-1" d="M35.78,71.56l-1.07,0L42,51.44H52.09a4.94,4.94,0,0,0,4.31-3l7.93-21.79c1.3-3.57-.75-6.49-4.54-6.49h-14L34.12,52.34h0L27.47,70.58A35.78,35.78,0,0,1,26.12,1.32L19.27,20.15h0L7.87,51.44h7.59l9.68-26.59h5.7L21.16,51.44h7.57l9-24.81c1.3-3.57-.74-6.49-4.54-6.49H26.85L34.17,0c.53,0,1.07,0,1.61,0a35.78,35.78,0,0,1,0,71.56ZM57.42,24.84H51.73l-8,21.89h5.7Z"/></svg>