<svg id="Layer_1" data-name="Layer 1" xmlns="http://www.w3.org/2000/svg" viewBox="0 0 157.5 24.12"><defs><style>.cls-1{fill:#1428a0;}</style></defs><path class="cls-1" d="M6,6.52A3,3,0,0,1,6,5.34,1.86,1.86,0,0,1,8,3.82a1.93,1.93,0,0,1,2.1,2.05V7.26h5.61V5.68C15.73.78,11.32,0,8.13,0,4.13,0,.86,1.33.27,5a7.62,7.62,0,0,0,0,3c1,4.6,9,5.93,10.14,8.85a3,3,0,0,1,.05,1.66,2,2,0,0,1-2.2,1.52A2,2,0,0,1,6.05,18V15.85H0v1.72c0,5,4,6.55,8.19,6.55,4.06,0,7.4-1.38,8-5.15a11.34,11.34,0,0,0,0-3.69C15.17,10.56,6.63,9.16,6,6.52Zm73.23.06a3.09,3.09,0,0,1,0-1.17,1.84,1.84,0,0,1,2-1.5,1.9,1.9,0,0,1,2.06,2V7.31h5.56V5.74C88.85.89,84.5.13,81.35.13c-4,0-7.21,1.3-7.8,5a7.61,7.61,0,0,0,0,3c1,4.55,8.89,5.87,10,8.75a2.92,2.92,0,0,1,0,1.65c-.17.75-.67,1.5-2.17,1.5a2,2,0,0,1-2.24-2V15.81h-6v1.72c0,5,3.9,6.48,8.1,6.48,4,0,7.34-1.38,7.88-5.1a11.13,11.13,0,0,0,0-3.65C88.3,10.59,79.85,9.18,79.21,6.58Zm51.13,12.27L125,.72h-8.36V23h5.53l-.32-18.71L127.58,23h8V.72H130ZM24.11.72,19.93,23.23H26L29.16,2.39l3.07,20.84h6L34.11.72Zm34,0-2.84,17.6L52.44.72H43.25l-.49,22.51h5.63l.15-20.84,3.87,20.84h5.71L62,2.39l.15,20.84h5.64L67.29.72Zm52.33,0h-5.7V17.37a3.94,3.94,0,0,1,0,.86,2.24,2.24,0,0,1-4.31,0,3.92,3.92,0,0,1-.06-.86V.72H94.63V16.86c0,.41,0,1.26.05,1.49.39,4.2,3.71,5.57,7.85,5.57s7.46-1.37,7.86-5.57a13.13,13.13,0,0,0,0-1.49Zm39.1,9.88v3.28h2.3v3.26a3.87,3.87,0,0,1-.06.85,2.43,2.43,0,0,1-4.6,0,5.67,5.67,0,0,1-.06-.85V6.85a4.45,4.45,0,0,1,.11-1.07,2.36,2.36,0,0,1,4.49,0,6.27,6.27,0,0,1,.06.87V7.9h5.68V7.16a14,14,0,0,0-.05-1.49C157,1.45,153.51.11,149.52.11s-7.41,1.35-7.91,5.56c0,.39-.11,1.08-.11,1.49v9.47a12,12,0,0,0,.09,1.48c.37,4.11,3.93,5.57,7.91,5.57s7.54-1.46,7.92-5.57c.06-.75.07-1.07.08-1.48v-6Z"/></svg>