<svg id="Layer_1" data-name="Layer 1" xmlns="http://www.w3.org/2000/svg" viewBox="0 0 104.9 42"><defs><style>.cls-1{fill:#a50e0e;}.cls-2{isolation:isolate;}.cls-3{fill:#fff;}.cls-4{fill:#444;}</style></defs><g id="Layer_2-2" data-name="Layer 2-2"><g id="Elipse_12" data-name="Elipse 12"><circle class="cls-1" cx="21.2" cy="21" r="20.8"/></g><g class="cls-2"><path class="cls-3" d="M4.1,24.2V18.6H5.2v4.7H8.1v1h-4Z"/><path class="cls-3" d="M8.9,24.2V18.5h1.2v5.7Z"/><path class="cls-3" d="M12.6,24.2l-2-5.7h1.2l1.4,4.2,1.4-4.2h1.2l-2,5.7Z"/><path class="cls-3" d="M16.4,24.2V18.5h2.4a3.92,3.92,0,0,1,1.3.2,1.79,1.79,0,0,1,.7.5,1.49,1.49,0,0,1,.2.9,1.5,1.5,0,0,1-.4,1.1,1.29,1.29,0,0,1-1.1.5,1.47,1.47,0,0,1,.6.5,9.68,9.68,0,0,1,.7.9l.7,1.1H20.1L19.3,23c-.3-.4-.5-.7-.6-.8s-.2-.2-.3-.2a3.54,3.54,0,0,0-.6-.1h-.2v2.4H16.4ZM17.6,21h.8a2.24,2.24,0,0,0,1-.1c.1,0,.2-.1.3-.2a.6.6,0,0,0,.1-.4c0-.2-.1-.3-.2-.5s-.2-.2-.4-.2H17.5V21Z"/><path class="cls-3" d="M21.9,21.4a3.34,3.34,0,0,1,.3-1.5,3.51,3.51,0,0,1,.5-.8,1.53,1.53,0,0,1,.7-.5,5,5,0,0,1,1.2-.2,2.79,2.79,0,0,1,2,.8,3,3,0,0,1,.8,2.2,2.76,2.76,0,0,1-4.7,2.1A2.52,2.52,0,0,1,21.9,21.4Zm1.2,0a2.41,2.41,0,0,0,.4,1.5,1.61,1.61,0,0,0,1.1.5,1.43,1.43,0,0,0,1.1-.5,2.08,2.08,0,0,0,.4-1.5,2.41,2.41,0,0,0-.4-1.5,1.61,1.61,0,0,0-1.1-.5,1.29,1.29,0,0,0-1.1.5A2.7,2.7,0,0,0,23.1,21.4Z"/><path class="cls-3" d="M30.5,18.6h2.1a3.42,3.42,0,0,1,1.1.1,4.05,4.05,0,0,1,.9.5,1.62,1.62,0,0,1,.5.9,5.07,5.07,0,0,1,.2,1.3,3.73,3.73,0,0,1-.2,1.2,2.07,2.07,0,0,1-.6,1,5.58,5.58,0,0,1-.8.5,3.08,3.08,0,0,1-1,.1H30.6V18.6Zm1.1.9v3.7h.9a1.48,1.48,0,0,0,.7-.1c.2,0,.3-.1.5-.2a2.19,2.19,0,0,0,.3-.5,3.08,3.08,0,0,0,.1-1,2.79,2.79,0,0,0-.1-1,2.19,2.19,0,0,0-.3-.5,2.19,2.19,0,0,0-.5-.3c-.2,0-.5-.1-.9-.1Z"/><path class="cls-3" d="M36.2,24.2V18.5h4.2v1H37.3v1.3h2.8v1H37.3v1.5h3.2v1H36.2Z"/></g><g class="cls-2"><path class="cls-1" d="M43.7,24.2V18.5h2.4a3.92,3.92,0,0,1,1.3.2,1.79,1.79,0,0,1,.7.5,1.49,1.49,0,0,1,.2.9,1.5,1.5,0,0,1-.4,1.1,1.29,1.29,0,0,1-1.1.5,1.47,1.47,0,0,1,.6.5,9.68,9.68,0,0,1,.7.9l.7,1.1H47.4L46.5,23c-.3-.4-.5-.7-.6-.8s-.2-.2-.3-.2a3.54,3.54,0,0,0-.6-.1h-.2v2.4H43.7ZM44.8,21h.8a2.24,2.24,0,0,0,1-.1c.1,0,.2-.1.3-.2a.6.6,0,0,0,.1-.4c0-.2-.1-.3-.2-.5s-.2-.2-.4-.2H44.7V21Z"/><path class="cls-1" d="M49.4,24.2V18.5h4.2v1H50.5v1.3h2.8v1H50.5v1.5h3.2v1H49.4Z"/><path class="cls-1" d="M58.2,22.2l1.1.4a3.69,3.69,0,0,1-.8,1.4,2.46,2.46,0,0,1-1.5.5,2.56,2.56,0,0,1-1.9-.8,2.82,2.82,0,0,1-.7-2.1,3.07,3.07,0,0,1,.7-2.2,2.56,2.56,0,0,1,1.9-.8,2.35,2.35,0,0,1,1.7.6,1.7,1.7,0,0,1,.6,1l-1.1.3a1.61,1.61,0,0,0-.4-.7,1.14,1.14,0,0,0-.8-.3,1.23,1.23,0,0,0-1,.5,2.08,2.08,0,0,0-.4,1.5A2.08,2.08,0,0,0,56,23a1.39,1.39,0,0,0,1,.5,1.14,1.14,0,0,0,.8-.3A1.78,1.78,0,0,0,58.2,22.2Z"/><path class="cls-1" d="M60.4,24.2V18.6h1.1v4.7h2.8v1H60.4Z"/><path class="cls-1" d="M70.3,24.2H69.1l-.5-1.3H66.3l-.5,1.3H64.6l2.2-5.7H68ZM68.2,22l-.8-2.1L66.6,22Z"/><path class="cls-1" d="M70.9,24.2V18.5h1.7l1,3.9,1-3.9h1.7v5.7H75.2V19.7l-1.1,4.5H73l-1.1-4.5v4.5Z"/><path class="cls-1" d="M82.6,24.2H81.4l-.5-1.3H78.6l-.5,1.3H76.9l2.2-5.7h1.2ZM80.5,22l-.8-2.1L78.9,22Z"/><path class="cls-1" d="M86.8,22.2l1.1.4a3.69,3.69,0,0,1-.8,1.4,2.46,2.46,0,0,1-1.5.5,2.56,2.56,0,0,1-1.9-.8,2.82,2.82,0,0,1-.7-2.1,3.07,3.07,0,0,1,.7-2.2,2.56,2.56,0,0,1,1.9-.8,2.35,2.35,0,0,1,1.7.6,1.7,1.7,0,0,1,.6,1l-1.1.3a1.61,1.61,0,0,0-.4-.7,1.14,1.14,0,0,0-.8-.3,1.23,1.23,0,0,0-1,.5,2.08,2.08,0,0,0-.4,1.5,2.08,2.08,0,0,0,.4,1.5,1.39,1.39,0,0,0,1,.5,1.14,1.14,0,0,0,.8-.3A10.37,10.37,0,0,0,86.8,22.2Zm-2.4,3.6v-.5h.7a.75.75,0,0,0,.5-.1c.1-.1.1-.1.1-.2s0-.2-.1-.2-.2-.1-.4-.1a.9.9,0,0,0-.5.1l.1-.4a1.27,1.27,0,0,1,.6-.1,1.17,1.17,0,0,1,.7.2.55.55,0,0,1,.3.5.86.86,0,0,1-.3.6,1.61,1.61,0,0,1-1.1.3A1.27,1.27,0,0,0,84.4,25.8Z"/><path class="cls-1" d="M88.6,21.4a3.34,3.34,0,0,1,.3-1.5,3.51,3.51,0,0,1,.5-.8,1.53,1.53,0,0,1,.7-.5,5,5,0,0,1,1.2-.2,2.79,2.79,0,0,1,2,.8,3,3,0,0,1,.8,2.2,2.76,2.76,0,0,1-4.7,2.1A2.86,2.86,0,0,1,88.6,21.4Zm1.2,0a2.41,2.41,0,0,0,.4,1.5,1.61,1.61,0,0,0,1.1.5,1.43,1.43,0,0,0,1.1-.5,2.08,2.08,0,0,0,.4-1.5,2.41,2.41,0,0,0-.4-1.5,1.61,1.61,0,0,0-1.1-.5,1.43,1.43,0,0,0-1.1.5A2.7,2.7,0,0,0,89.8,21.4Zm.7-3.1H90v-.1a.85.85,0,0,1,.2-.6.76.76,0,0,1,.5-.2H91c.1,0,.2.1.4.2a1.09,1.09,0,0,0,.5.1c.1,0,.2,0,.2-.1s.1-.1.1-.3h.5a1.17,1.17,0,0,1-.2.7.76.76,0,0,1-.5.2h-.3c-.1,0-.2-.1-.4-.2a1.09,1.09,0,0,0-.5-.1c-.1,0-.1,0-.2.1S90.5,18.1,90.5,18.3Z"/><path class="cls-1" d="M95,24.2V18.5h4.2v1H96.1v1.3h2.8v1H96.1v1.5h3.2v1H95Z"/><path class="cls-1" d="M100,22.4l1.1-.1a1.51,1.51,0,0,0,.4.8,1.14,1.14,0,0,0,.8.3,1.55,1.55,0,0,0,.8-.2c.2-.2.3-.3.3-.5a.37.37,0,0,0-.1-.3.52.52,0,0,0-.4-.2c-.1,0-.4-.1-.9-.2a3.15,3.15,0,0,1-1.3-.6,1.61,1.61,0,0,1-.5-1.1,1.88,1.88,0,0,1,.2-.8,2.17,2.17,0,0,1,.7-.6,2,2,0,0,1,1.1-.2,2.54,2.54,0,0,1,1.6.5,1.74,1.74,0,0,1,.6,1.2l-1.1.1a.85.85,0,0,0-.3-.6,1.17,1.17,0,0,0-.7-.2,1.88,1.88,0,0,0-.8.2.52.52,0,0,0-.2.4c0,.1.1.2.2.3a6.39,6.39,0,0,0,1,.4,4,4,0,0,1,1.2.4.9.9,0,0,1,.6.6,2.39,2.39,0,0,1,.2.9,1.61,1.61,0,0,1-.3.9,1.24,1.24,0,0,1-.8.6,4.3,4.3,0,0,1-1.2.2,2.35,2.35,0,0,1-1.6-.5A5.78,5.78,0,0,1,100,22.4Z"/></g><g class="cls-2"><path class="cls-4" d="M46.6,31.5l.7.2a2.73,2.73,0,0,1-.8,1.4,2.46,2.46,0,0,1-1.5.5,2.41,2.41,0,0,1-1.5-.4,2,2,0,0,1-.9-1.1,4,4,0,0,1-.3-1.5,3.34,3.34,0,0,1,.3-1.5,2,2,0,0,1,1-1,3.19,3.19,0,0,1,1.4-.3,2.12,2.12,0,0,1,1.4.4,2,2,0,0,1,.8,1.2l-.7.2a1.46,1.46,0,0,0-.6-.9,1.4,1.4,0,0,0-.9-.3,2,2,0,0,0-1.1.3,1.56,1.56,0,0,0-.6.8,2.15,2.15,0,0,0-.2,1.1,5.07,5.07,0,0,0,.2,1.3,1.39,1.39,0,0,0,.7.8,1.69,1.69,0,0,0,1,.3,1.5,1.5,0,0,0,1.1-.4A2.81,2.81,0,0,0,46.6,31.5Z"/><path class="cls-4" d="M47.9,31.4a2.2,2.2,0,0,1,.6-1.7,2.11,2.11,0,0,1,1.3-.5,1.82,1.82,0,0,1,1.4.6,2,2,0,0,1,.5,1.5,3.73,3.73,0,0,1-.2,1.2,2.34,2.34,0,0,1-.7.7,1.69,1.69,0,0,1-1,.3,1.82,1.82,0,0,1-1.4-.6A2.07,2.07,0,0,1,47.9,31.4Zm.7,0a2.13,2.13,0,0,0,.3,1.2,1,1,0,0,0,.9.4,1.22,1.22,0,0,0,.9-.4,2.55,2.55,0,0,0,0-2.4,1,1,0,0,0-.9-.4,1.22,1.22,0,0,0-.9.4A2.13,2.13,0,0,0,48.6,31.4Z"/><path class="cls-4" d="M52.5,33.5V29.4h.6V30a1.21,1.21,0,0,1,.5-.5,1.85,1.85,0,0,1,.7-.2,1.17,1.17,0,0,1,.7.2,2.18,2.18,0,0,1,.4.5,1.36,1.36,0,0,1,1.3-.7,1.22,1.22,0,0,1,.9.3,1.49,1.49,0,0,1,.3,1v2.8h-.7V30.8c0-.3,0-.5-.1-.6s.1-.1,0-.2a.6.6,0,0,0-.4-.1.91.91,0,0,0-.7.3,1.22,1.22,0,0,0-.3.9v2.4H55V30.8a1.45,1.45,0,0,0-.2-.7c-.1-.2-.3-.2-.6-.2a.76.76,0,0,0-.5.2,2.18,2.18,0,0,0-.4.5,2.22,2.22,0,0,0-.1.9v2.1h-.7Z"/><path class="cls-4" d="M59.1,35V29.3h.6v.5a1.21,1.21,0,0,1,.5-.5,1.45,1.45,0,0,1,.7-.2,1.22,1.22,0,0,1,.9.3,1.7,1.7,0,0,1,.6.8,3.13,3.13,0,0,1,0,2.2,2.7,2.7,0,0,1-.7.8,1.61,1.61,0,0,1-.9.3,1.27,1.27,0,0,1-.6-.1,1.76,1.76,0,0,1-.5-.4v2Zm.7-3.6a2.13,2.13,0,0,0,.3,1.2,1,1,0,0,0,1.6,0,2.55,2.55,0,0,0,0-2.4,1,1,0,0,0-1.6,0A2.13,2.13,0,0,0,59.8,31.4Z"/><path class="cls-4" d="M63.5,33.5V27.8h.7v5.7Z"/><path class="cls-4" d="M68,33c-.3.2-.5.4-.7.5a2,2,0,0,1-.8.1,1.33,1.33,0,0,1-1-.3,1.49,1.49,0,0,1-.4-.9.75.75,0,0,1,.1-.5.78.78,0,0,1,.4-.4.76.76,0,0,1,.5-.2,3.54,3.54,0,0,1,.6-.1,7.07,7.07,0,0,0,1.2-.2v-.2a.85.85,0,0,0-.2-.6c-.2-.2-.4-.2-.8-.2a1.17,1.17,0,0,0-.7.2.6.6,0,0,0-.3.6l-.7-.1a4.88,4.88,0,0,1,.3-.7.92.92,0,0,1,.6-.4,2.77,2.77,0,0,1,.9-.1,2.48,2.48,0,0,1,.9.1,2.19,2.19,0,0,1,.5.3.76.76,0,0,1,.2.5v2.7c0,.2.1.3.2.5h-.7A1.49,1.49,0,0,1,68,33Zm-.1-1.6a8.11,8.11,0,0,1-1.1.3,3.54,3.54,0,0,0-.6.1c-.1.1-.2.1-.3.2a.37.37,0,0,0-.1.3c0,.2.1.3.2.5s.3.2.6.2a1.45,1.45,0,0,0,.7-.2,1.21,1.21,0,0,0,.5-.5,1.48,1.48,0,0,0,.1-.7Z"/><path class="cls-4" d="M69.7,28.6v-.8h.7v.8Zm0,4.9V29.4h.7v4.1Z"/><path class="cls-4" d="M71.4,33.5V29.4h.7V30a1.36,1.36,0,0,1,1.3-.7,1.7,1.7,0,0,1,.7.1,2.19,2.19,0,0,1,.5.3.76.76,0,0,1,.2.5v3.2h-.7V31c0-.3,0-.5-.1-.6s-.1-.3-.3-.3a.75.75,0,0,0-.5-.1,1.14,1.14,0,0,0-.8.3,1.44,1.44,0,0,0-.3,1.1v2.2h-.7Z"/><path class="cls-4" d="M77.4,32.8l.1.6a4.33,4.33,0,0,0-.5.1,1.08,1.08,0,0,1-.6-.1l-.3-.3c-.1-.1-.1-.4-.1-.8V29.9h-.5v-.5H76v-1l.7-.4v1.4h.7v.5h-.7v2.8a.1.1,0,0,0,.1.1H77C77.1,32.9,77.2,32.9,77.4,32.8Z"/><path class="cls-4" d="M77.8,32.2l.7-.1a.6.6,0,0,0,.3.6,1.45,1.45,0,0,0,.7.2,1.17,1.17,0,0,0,.7-.2.76.76,0,0,0,.2-.5.52.52,0,0,0-.2-.4c-.1-.1-.3-.1-.7-.2a5.31,5.31,0,0,1-1.1-.3.78.78,0,0,1-.4-.4c-.1-.2-.2-.3-.2-.5a.75.75,0,0,1,.1-.5c.1-.1.2-.3.3-.4s.3-.1.4-.2a1.27,1.27,0,0,1,.6-.1,2,2,0,0,1,.8.1,1,1,0,0,1,.5.4,1.42,1.42,0,0,1,.2.6l-.7.1a.55.55,0,0,0-.3-.5,1.07,1.07,0,0,0-.6-.2,1.45,1.45,0,0,0-.7.2c-.2.1-.2.2-.2.4s0,.2.1.2a.77.77,0,0,0,.3.2,3.93,3.93,0,0,1,.6.2,4.05,4.05,0,0,1,1,.3,1.76,1.76,0,0,1,.5.4,1.42,1.42,0,0,1,.2.6,2.54,2.54,0,0,1-.2.7,1,1,0,0,1-.6.5,2.39,2.39,0,0,1-.9.2,2.13,2.13,0,0,1-1.2-.3C78,33,77.8,32.7,77.8,32.2Z"/><path class="cls-4" d="M84.2,33.5V27.8h2.1a2.51,2.51,0,0,1,1,.2,1,1,0,0,1,.6.5,1.85,1.85,0,0,1,.2.7,1.85,1.85,0,0,1-.2.7,1,1,0,0,1-.6.5,2.18,2.18,0,0,1,.8.5,1.22,1.22,0,0,1,.3.9,1.45,1.45,0,0,1-.2.7,2.18,2.18,0,0,1-.4.5l-.6.3a2.48,2.48,0,0,1-.9.1H84.2Zm.8-3.3h1.2c.3,0,.6,0,.7-.1a1.38,1.38,0,0,0,.4-.3,1.3,1.3,0,0,0,0-1,1.38,1.38,0,0,0-.4-.3,2.22,2.22,0,0,0-.9-.1H84.9v1.8Zm0,2.6h1.9a.52.52,0,0,0,.4-.2l.3-.3a.75.75,0,0,0,.1-.5.76.76,0,0,0-.2-.5c0-.2-.2-.3-.4-.3a2,2,0,0,0-.8-.1H85Z"/><path class="cls-4" d="M89.2,31.4a2.2,2.2,0,0,1,.6-1.7,2.11,2.11,0,0,1,1.3-.5,1.82,1.82,0,0,1,1.4.6,2,2,0,0,1,.5,1.5,3.73,3.73,0,0,1-.2,1.2,2.34,2.34,0,0,1-.7.7,1.69,1.69,0,0,1-1,.3,1.82,1.82,0,0,1-1.4-.6A2.07,2.07,0,0,1,89.2,31.4Zm.7,0a2.13,2.13,0,0,0,.3,1.2,1,1,0,0,0,.9.4,1.22,1.22,0,0,0,.9-.4,2.55,2.55,0,0,0,0-2.4,1,1,0,0,0-.9-.4,1.22,1.22,0,0,0-.9.4A2.13,2.13,0,0,0,89.9,31.4Z"/><path class="cls-4" d="M93.6,31.4a2.2,2.2,0,0,1,.6-1.7,2.11,2.11,0,0,1,1.3-.5,1.82,1.82,0,0,1,1.4.6,2,2,0,0,1,.5,1.5,3.73,3.73,0,0,1-.2,1.2,2.34,2.34,0,0,1-.7.7,1.69,1.69,0,0,1-1,.3,1.82,1.82,0,0,1-1.4-.6A2.07,2.07,0,0,1,93.6,31.4Zm.7,0a2.13,2.13,0,0,0,.3,1.2,1,1,0,0,0,.9.4,1.22,1.22,0,0,0,.9-.4,2.55,2.55,0,0,0,0-2.4,1,1,0,0,0-.9-.4,1.22,1.22,0,0,0-.9.4A2.13,2.13,0,0,0,94.3,31.4Z"/><path class="cls-4" d="M98.3,33.5V27.8H99V31l1.6-1.7h.9l-1.6,1.5,1.7,2.6h-.9l-1.4-2.1-.5.5v1.6h-.5Z"/></g></g></svg>