<svg id="Layer_1" data-name="Layer 1" xmlns="http://www.w3.org/2000/svg" viewBox="0 0 157.5 35.8"><defs><style>.cls-1{isolation:isolate;}.cls-2{fill:#474847;}.cls-3{fill:#666;}.cls-4{fill:#4e9b45;}</style></defs><g id="Layer_2" data-name="Layer 2"><g id="Layer_2-2" data-name="Layer 2-2"><g class="cls-1"><path class="cls-2" d="M44.9,16.9V11.4h2.3a4.51,4.51,0,0,1,1.3.1,1,1,0,0,1,.6.5,1.34,1.34,0,0,1,.2.9,1.16,1.16,0,0,1-.4,1,1.63,1.63,0,0,1-1.1.5,2.65,2.65,0,0,1,.6.5,3.49,3.49,0,0,1,.6.9l.7,1.1H48.4l-.8-1.2c-.3-.4-.5-.7-.6-.8s-.2-.2-.3-.2a3.54,3.54,0,0,0-.6-.1h-.2v2.3ZM46,13.7h.8a2.24,2.24,0,0,0,1-.1c.1,0,.2-.1.3-.2s.1-.2.1-.4,0-.3-.1-.4a.52.52,0,0,0-.4-.2H46Z"/><path class="cls-2" d="M50.1,16.9V11.4h4.1v.9h-3v1.2H54v.9H51.2v1.5h3.1v.9H50.1Z"/><path class="cls-2" d="M54.7,15.1l1.1-.1a1.51,1.51,0,0,0,.4.8,1.14,1.14,0,0,0,.8.3,1.55,1.55,0,0,0,.8-.2c.2-.2.3-.3.3-.5a.37.37,0,0,0-.1-.3.52.52,0,0,0-.4-.2c-.1,0-.4-.1-.9-.2a3.2,3.2,0,0,1-1.3-.5,1.61,1.61,0,0,1-.5-1.1,2.35,2.35,0,0,1,.2-.8,4.35,4.35,0,0,1,.7-.6,3.59,3.59,0,0,1,1.1-.2,2.54,2.54,0,0,1,1.6.5,1.74,1.74,0,0,1,.6,1.2H58a.6.6,0,0,0-.3-.6,1.45,1.45,0,0,0-.7-.2,1.88,1.88,0,0,0-.8.2c-.1.1-.2.2-.2.3s.1.2.2.3a6.39,6.39,0,0,0,1,.4,8.34,8.34,0,0,1,1.2.4.9.9,0,0,1,.6.6,1.85,1.85,0,0,1,.2.7,1.61,1.61,0,0,1-.3.9,1.34,1.34,0,0,1-.7.6A3.73,3.73,0,0,1,57,17a2.54,2.54,0,0,1-1.6-.5A1.89,1.89,0,0,1,54.7,15.1Z"/><path class="cls-2" d="M59.6,14.2a2.9,2.9,0,0,1,.3-1.4,3.51,3.51,0,0,1,.5-.8,3,3,0,0,1,.7-.5,3.73,3.73,0,0,1,1.2-.2,2.41,2.41,0,0,1,1.9.8,2.82,2.82,0,0,1,.7,2.1,2.82,2.82,0,0,1-.7,2.1,2.56,2.56,0,0,1-1.9.8,2.72,2.72,0,0,1-2-.7A3.23,3.23,0,0,1,59.6,14.2Zm1.1,0a2,2,0,0,0,.4,1.4,1.46,1.46,0,0,0,2.2,0,2,2,0,0,0,.4-1.4,2,2,0,0,0-.4-1.4c-.2-.4-.6-.5-1.1-.5a1.43,1.43,0,0,0-1.1.5A2.33,2.33,0,0,0,60.7,14.2Z"/><path class="cls-2" d="M65.5,16.9V11.4h1.1v4.5h2.8v.9H65.5Z"/><path class="cls-2" d="M69.9,11.4H71v3.9a.85.85,0,0,0,.3.5,1.45,1.45,0,0,0,.7.2,1.17,1.17,0,0,0,.7-.2.55.55,0,0,0,.3-.5V11.4h1.2v2.9a4.92,4.92,0,0,1-.1,1.4,4.88,4.88,0,0,1-.3.7,2.09,2.09,0,0,1-.6.4,3.09,3.09,0,0,1-1.1.2,3.73,3.73,0,0,1-1.2-.2,1,1,0,0,1-.6-.5.86.86,0,0,1-.3-.6,5.31,5.31,0,0,1-.1-1.4Z"/><path class="cls-2" d="M78.6,14.9l1.1.3a2.42,2.42,0,0,1-.8,1.3,2.81,2.81,0,0,1-3.3-.3,2.72,2.72,0,0,1-.7-2,2.82,2.82,0,0,1,.7-2.1,2.56,2.56,0,0,1,1.9-.8,2.11,2.11,0,0,1,1.6.6,4.37,4.37,0,0,1,.6,1l-1.1.3a1.61,1.61,0,0,0-.4-.7,1.08,1.08,0,0,0-.8-.2,1.28,1.28,0,0,0-1,.4,2,2,0,0,0-.4,1.4,2.08,2.08,0,0,0,.4,1.5,1.16,1.16,0,0,0,1,.4,1.33,1.33,0,0,0,.8-.3C78.4,15.6,78.5,15.3,78.6,14.9Zm-2.3,3.5V18H77a.75.75,0,0,0,.5-.1c.1-.1.1-.1.1-.2s0-.2-.1-.2-.2-.1-.4-.1a.9.9,0,0,0-.5.1l.1-.4a1.27,1.27,0,0,1,.6-.1,1.17,1.17,0,0,1,.7.2c.2.1.2.3.2.5a.55.55,0,0,1-.3.5,1.49,1.49,0,0,1-1,.3A1.27,1.27,0,0,1,76.3,18.4Z"/><path class="cls-2" d="M85.3,16.9H84.1l-.5-1.3H81.4l-.5,1.3H79.7l2.1-5.5H83Zm-3.6-5.8h-.5V11a.85.85,0,0,1,.2-.6.76.76,0,0,1,.5-.2h.2c.1,0,.2.1.4.2a1.09,1.09,0,0,0,.5.1c.1,0,.1,0,.2-.1s.1-.1.1-.3h.5a1.17,1.17,0,0,1-.2.7.76.76,0,0,1-.5.2h-.3c-.1,0-.2-.1-.4-.2a1.09,1.09,0,0,0-.5-.1c-.1,0-.1,0-.2.1Zm1.6,3.6-.8-2-.7,2Z"/><path class="cls-2" d="M85.4,14.2a2.9,2.9,0,0,1,.3-1.4,3.51,3.51,0,0,1,.5-.8,3,3,0,0,1,.7-.5,3.73,3.73,0,0,1,1.2-.2,2.41,2.41,0,0,1,1.9.8,2.82,2.82,0,0,1,.7,2.1,2.82,2.82,0,0,1-.7,2.1,2.56,2.56,0,0,1-1.9.8,2.72,2.72,0,0,1-2-.7A3.23,3.23,0,0,1,85.4,14.2Zm1.1,0a2,2,0,0,0,.4,1.4,1.46,1.46,0,0,0,2.2,0,2,2,0,0,0,.4-1.4,2,2,0,0,0-.4-1.4,1.46,1.46,0,0,0-2.2,0A2.33,2.33,0,0,0,86.5,14.2Z"/><path class="cls-2" d="M97.8,16.9H96.6l-.5-1.3H93.9l-.5,1.3H92.2l2.1-5.5h1.2Zm-2-2.2-.8-2-.7,2Z"/></g><g class="cls-1"><path class="cls-2" d="M98.1,16.9V11.4h1.1v4.5H102v.9H98.1Z"/></g><g class="cls-1"><path class="cls-2" d="M103.5,16.9V12.3h-1.6v-.9h4.4v.9h-1.6v4.6Z"/><path class="cls-2" d="M106.6,16.9V11.4h4.1v.9h-3v1.2h2.8v.9h-2.8v1.5h3.1v.9h-4.2Z"/><path class="cls-2" d="M111.5,16.9V11.4h2.3a4.51,4.51,0,0,1,1.3.1,1,1,0,0,1,.6.5,1.34,1.34,0,0,1,.2.9,1.16,1.16,0,0,1-.4,1,1.63,1.63,0,0,1-1.1.5,2.65,2.65,0,0,1,.6.5,3.49,3.49,0,0,1,.6.9l.7,1.1H115l-.8-1.2c-.3-.4-.5-.7-.6-.8s-.2-.2-.3-.2a3.54,3.54,0,0,0-.6-.1h-.2v2.3Zm1.1-3.2h.8a2.24,2.24,0,0,0,1-.1c.1,0,.2-.1.3-.2s.1-.2.1-.4,0-.3-.1-.4a.52.52,0,0,0-.4-.2h-1.7Z"/><path class="cls-2" d="M116.7,16.9V11.4h1.1l2.3,3.7V11.4h1v5.5H120l-2.2-3.6v3.6Z"/></g><g class="cls-1"><path class="cls-2" d="M126.9,16.9h-1.2l-.5-1.3H123l-.5,1.3h-1.2l2.1-5.5h1.2Zm-2-2.2-.8-2-.7,2Z"/></g><g class="cls-1"><path class="cls-2" d="M128.2,16.9V12.3h-1.6v-.9H131v.9h-1.6v4.6Z"/><path class="cls-2" d="M131.3,16.9V11.4h1.1v5.5Z"/></g><g class="cls-1"><path class="cls-2" d="M134.6,16.9l-2-5.5h1.2l1.4,4.1,1.3-4.1h1.2l-2,5.5Z"/></g><g class="cls-1"><path class="cls-2" d="M142.8,16.9h-1.2l-.5-1.3h-2.2l-.5,1.3h-1.2l2.1-5.5h1.2Zm-2.1-2.2-.8-2-.7,2Z"/></g><g class="cls-1"><path class="cls-2" d="M45,22.2h2.2a4.12,4.12,0,0,1,1.2.1,1.46,1.46,0,0,1,.9.6,2.07,2.07,0,0,1,.6,1,6.05,6.05,0,0,1,.2,1.5,4.44,4.44,0,0,1-.2,1.3,3,3,0,0,1-.7,1.1,1.93,1.93,0,0,1-.9.5,3.42,3.42,0,0,1-1.1.1H44.8V22.2Zm1.2,1v4.1h.9a2,2,0,0,0,.8-.1c.2-.1.4-.1.5-.3a1.63,1.63,0,0,0,.3-.6,3.75,3.75,0,0,0,.1-1.1,3.42,3.42,0,0,0-.1-1.1.92.92,0,0,0-.4-.6,3.33,3.33,0,0,0-.6-.3c-.2,0-.5-.1-1-.1h-.5Z"/><path class="cls-2" d="M51.2,28.4V22.2h4.6v1H52.5v1.4h3.1v1H52.5v1.7H56v1H51.2Z"/><path class="cls-2" d="M59.4,28.4V22.3h1.3v5h3.1v1H59.4Z"/><path class="cls-2" d="M64.6,28.4V22.2h1.3v6.2Z"/><path class="cls-2" d="M68.5,28.4V23.3H66.7v-1h4.9v1H69.8v5.1Z"/><path class="cls-2" d="M72.2,21.8l.6-1.3h1.3l-1.2,1.3Zm.1,6.6V22.2h1.3v6.2Z"/><path class="cls-2" d="M77.7,26.1v-1h2.7v2.5a3,3,0,0,1-1.1.7,4,4,0,0,1-1.5.3,3.29,3.29,0,0,1-1.7-.4A3.18,3.18,0,0,1,75,27a4.71,4.71,0,0,1-.4-1.7,3.29,3.29,0,0,1,.4-1.7,3.45,3.45,0,0,1,1.2-1.2,3.34,3.34,0,0,1,1.5-.3,3,3,0,0,1,1.8.5,2.22,2.22,0,0,1,.8,1.3l-1.2.2a1.79,1.79,0,0,0-.5-.7,1.22,1.22,0,0,0-.9-.3,1.9,1.9,0,0,0-1.3.5,2.25,2.25,0,0,0-.5,1.5,2.86,2.86,0,0,0,.5,1.7,1.61,1.61,0,0,0,1.3.6,2.35,2.35,0,0,0,.8-.2,1.61,1.61,0,0,0,.7-.4V26H77.7Z"/><path class="cls-2" d="M81.5,28.4V22.2h1.3v6.2Z"/><path class="cls-2" d="M83.7,25.3a3.81,3.81,0,0,1,.3-1.6,1.56,1.56,0,0,1,.6-.8,2.41,2.41,0,0,1,.8-.6,2.74,2.74,0,0,1,1.3-.2,2.94,2.94,0,0,1,2.2.9,3.65,3.65,0,0,1,.8,2.4,3.2,3.2,0,0,1-.8,2.3,2.73,2.73,0,0,1-2.2.8,3.11,3.11,0,0,1-2.2-.8A3.19,3.19,0,0,1,83.7,25.3Zm1.3,0a2.54,2.54,0,0,0,.5,1.6,1.35,1.35,0,0,0,1.2.5,1.66,1.66,0,0,0,1.2-.5,2.81,2.81,0,0,0,0-3.2,1.69,1.69,0,0,0-2.4,0A1.94,1.94,0,0,0,85,25.3Z"/><path class="cls-2" d="M90.3,26.4l1.2-.1a1.88,1.88,0,0,0,.4.9,1.5,1.5,0,0,0,1.8,0,.86.86,0,0,0,.3-.6.6.6,0,0,0-.1-.4,1.38,1.38,0,0,0-.4-.3c-.1-.1-.5-.1-1-.3a4.78,4.78,0,0,1-1.4-.6,1.56,1.56,0,0,1-.6-1.2,1.61,1.61,0,0,1,.3-.9,1.24,1.24,0,0,1,.8-.6,3.73,3.73,0,0,1,1.2-.2,3,3,0,0,1,1.8.5,1.68,1.68,0,0,1,.6,1.4l-1.3.1a4.88,4.88,0,0,0-.3-.7,1.55,1.55,0,0,0-.8-.2,2.39,2.39,0,0,0-.9.2.52.52,0,0,0-.2.4.76.76,0,0,0,.2.4,3.18,3.18,0,0,0,1.1.4,8.4,8.4,0,0,1,1.4.4,4.35,4.35,0,0,1,.7.6,1.64,1.64,0,0,1,.2,1,1.69,1.69,0,0,1-.3,1,2.7,2.7,0,0,1-.8.7,2.74,2.74,0,0,1-1.3.2,3,3,0,0,1-1.8-.5A2.72,2.72,0,0,1,90.3,26.4Z"/><path class="cls-2" d="M98.8,22.2h2.3a4.12,4.12,0,0,1,1.2.1,1.46,1.46,0,0,1,.9.6,2.07,2.07,0,0,1,.6,1,6.05,6.05,0,0,1,.2,1.5,4.44,4.44,0,0,1-.2,1.3,3,3,0,0,1-.7,1.1,1.93,1.93,0,0,1-.9.5,3.42,3.42,0,0,1-1.1.1H98.7V22.2Zm1.3,1v4.1h.9a2,2,0,0,0,.8-.1c.2-.1.4-.1.5-.3a1.63,1.63,0,0,0,.3-.6,3.75,3.75,0,0,0,.1-1.1,3.42,3.42,0,0,0-.1-1.1.92.92,0,0,0-.4-.6,3.33,3.33,0,0,0-.6-.3c-.2,0-.5-.1-1-.1h-.5Z"/><path class="cls-2" d="M105.1,28.4V22.2h4.6v1h-3.3v1.4h3.1v1h-3.1v1.7h3.5v1h-4.8Z"/><path class="cls-2" d="M117.2,26.1l1.2.4a2.41,2.41,0,0,1-2.5,2,2.79,2.79,0,0,1-2-.8,3.37,3.37,0,0,1-.8-2.3,3.65,3.65,0,0,1,.8-2.4,2.58,2.58,0,0,1,2.1-.9,2.14,2.14,0,0,1,1.8.7,2,2,0,0,1,.6,1.1l-1.2.3a1.37,1.37,0,0,0-.5-.8,1.14,1.14,0,0,0-.8-.3,1.43,1.43,0,0,0-1.1.5,2.36,2.36,0,0,0-.4,1.6,2.67,2.67,0,0,0,.4,1.7,1.43,1.43,0,0,0,1.1.5,1.61,1.61,0,0,0,.9-.3A1.88,1.88,0,0,0,117.2,26.1Z"/><path class="cls-2" d="M119.3,25.3a3.81,3.81,0,0,1,.3-1.6,1.56,1.56,0,0,1,.6-.8,2.41,2.41,0,0,1,.8-.6,2.74,2.74,0,0,1,1.3-.2,2.94,2.94,0,0,1,2.2.9,3.65,3.65,0,0,1,.8,2.4,3.2,3.2,0,0,1-.8,2.3,2.73,2.73,0,0,1-2.2.8,3.11,3.11,0,0,1-2.2-.8A3.19,3.19,0,0,1,119.3,25.3Zm1.3,0a2.54,2.54,0,0,0,.5,1.6,1.35,1.35,0,0,0,1.2.5,1.66,1.66,0,0,0,1.2-.5,2.81,2.81,0,0,0,0-3.2,1.69,1.69,0,0,0-2.4,0A1.94,1.94,0,0,0,120.6,25.3Z"/><path class="cls-2" d="M126.3,28.4V22.2h1.2l2.5,4.1V22.2h1.2v6.2h-1.3l-2.5-4v4Z"/><path class="cls-2" d="M132.2,26.4l1.2-.1a1.88,1.88,0,0,0,.4.9,1.5,1.5,0,0,0,1.8,0,.86.86,0,0,0,.3-.6.6.6,0,0,0-.1-.4,1.38,1.38,0,0,0-.4-.3c-.1-.1-.5-.1-1-.3A4.78,4.78,0,0,1,133,25a1.56,1.56,0,0,1-.6-1.2,1.61,1.61,0,0,1,.3-.9,1.24,1.24,0,0,1,.8-.6,3.73,3.73,0,0,1,1.2-.2,3,3,0,0,1,1.8.5,1.68,1.68,0,0,1,.6,1.4l-1.3.1a4.88,4.88,0,0,0-.3-.7,1.55,1.55,0,0,0-.8-.2,2.39,2.39,0,0,0-.9.2.52.52,0,0,0-.2.4.76.76,0,0,0,.2.4,3.18,3.18,0,0,0,1.1.4,8.4,8.4,0,0,1,1.4.4,4.35,4.35,0,0,1,.7.6,1.64,1.64,0,0,1,.2,1,1.69,1.69,0,0,1-.3,1,2.7,2.7,0,0,1-.8.7,2.74,2.74,0,0,1-1.3.2A3,3,0,0,1,133,28,2.26,2.26,0,0,1,132.2,26.4Z"/><path class="cls-2" d="M138.3,22.2h1.3v4.4a.92.92,0,0,0,.4.6,1.08,1.08,0,0,0,.8.2,1.55,1.55,0,0,0,.8-.2.55.55,0,0,0,.3-.5c0-.2.1-.6.1-1.1V22.2h1.3v3.3a6.66,6.66,0,0,1-.1,1.6,2,2,0,0,1-.4.8,1.79,1.79,0,0,1-.7.5,3.73,3.73,0,0,1-1.2.2,3.92,3.92,0,0,1-1.3-.2,1.79,1.79,0,0,1-.7-.5,1.61,1.61,0,0,1-.4-.7,7.12,7.12,0,0,1-.1-1.6V22.2Z"/><path class="cls-2" d="M144.5,28.4V22.2h1.9l1.1,4.2,1.1-4.2h1.9v6.2h-1.2V23.5l-1.2,4.9h-1.2l-1.2-4.9v4.9Z"/><path class="cls-2" d="M151.5,25.3a3.81,3.81,0,0,1,.3-1.6,1.56,1.56,0,0,1,.6-.8,2.41,2.41,0,0,1,.8-.6,2.74,2.74,0,0,1,1.3-.2,2.94,2.94,0,0,1,2.2.9,3.65,3.65,0,0,1,.8,2.4,3.2,3.2,0,0,1-.8,2.3,2.73,2.73,0,0,1-2.2.8,3.11,3.11,0,0,1-2.2-.8A3.65,3.65,0,0,1,151.5,25.3Zm1.3,0a2.54,2.54,0,0,0,.5,1.6,1.35,1.35,0,0,0,1.2.5,1.66,1.66,0,0,0,1.2-.5,2.81,2.81,0,0,0,0-3.2,1.69,1.69,0,0,0-2.4,0A1.94,1.94,0,0,0,152.8,25.3Z"/></g><g id="Caminho_13" data-name="Caminho 13"><path class="cls-3" d="M17.9,35.8A17.9,17.9,0,1,1,35.8,17.9h0A17.88,17.88,0,0,1,17.9,35.8Zm0-33.9a16,16,0,0,0-16,16,15.9,15.9,0,0,0,31.8,0,15.81,15.81,0,0,0-15.8-16Z"/></g><g id="Caminho_14" data-name="Caminho 14"><path class="cls-3" d="M15.4,22.7c0,1.9-2.7.1-4.8-1.4s-5.1-2.5-3.1-4c.7-.5,1.4-.9,4.8,1.4C16,21.1,15.4,21,15.4,22.7Z"/></g><g id="Caminho_15" data-name="Caminho 15"><path class="cls-3" d="M14.6,7.6c.1-1.9,2.7,0,4.8,1.5s5,2.7,2.8,4.2c-.8.5-1.4.9-4.8-1.5C13.9,9.2,14.5,9.3,14.6,7.6Z"/></g><g id="Caminho_16" data-name="Caminho 16"><path class="cls-3" d="M10.4,16.8s2.4,1.3,4.3,2.6a9,9,0,0,0,2.7-1.1l10.3,6.3s2.9.6,1.7-2.2L18.9,16.2l.2-2.7a18.43,18.43,0,0,1-4.3-3A9.51,9.51,0,0,0,10.4,16.8Z"/></g><g id="Ret창ngulo_11" data-name="Ret창ngulo 11"><rect class="cls-3" x="6.5" y="27" width="13.2" height="1.2"/></g><g id="Ret창ngulo_12" data-name="Ret창ngulo 12"><rect class="cls-3" x="7.5" y="24.7" width="11.3" height="2.3"/></g><g id="Caminho_17" data-name="Caminho 17"><path class="cls-4" d="M23,10.9l5.4,6.2a1.87,1.87,0,0,0,2.6,0l.3-.3,8.3-12,1.2-1.7a1.84,1.84,0,0,0-3.2-1.8l-8.3,12L28.1,15l2.9-.4L25.6,8.3A1.84,1.84,0,0,0,23,10.9Z"/></g></g></g></svg>